<svg width="280" height="280" viewBox="0 0 280 280" fill="none" xmlns="http://www.w3.org/2000/svg">
<rect width="280" height="280" fill="#625D5D"/>
<g clip-path="url(#clip0_0_1)">
<rect width="280" height="280" fill="#86B1F0"/>
<path d="M35.1433 46.85L26 51.8333L16.8567 46.85C12.554 44.5027 9.07884 40.887 6.90398 36.4946C4.72912 32.1023 3.96015 27.1465 4.70168 22.3017L5.00501 20.3083L6.50001 10.6667C19.5 10.6667 26 4.16666 26 4.16666C26 4.16666 32.5 10.6667 45.5 10.6667L46.995 20.3083L47.2983 22.3017C48.0399 27.1465 47.2709 32.1023 45.096 36.4946C42.9212 40.887 39.446 44.5027 35.1433 46.85Z" fill="#56B54E"/>
<path d="M46.995 20.3083C46.2475 23.6178 44.8041 26.7302 42.7606 29.4387C40.7172 32.1471 38.1205 34.3894 35.1433 36.0167L28.0735 39.869C27.4374 40.2156 26.7245 40.3973 26 40.3973C25.2755 40.3973 24.5626 40.2156 23.9265 39.869L16.8567 36.0167C13.8795 34.3894 11.2829 32.1471 9.23939 29.4387C7.19593 26.7302 5.75247 23.6178 5.005 20.3083L6.50001 10.6667C19.5 10.6667 26 4.16666 26 4.16666C26 4.16666 32.5 10.6667 45.5 10.6667L46.995 20.3083Z" fill="#60CC5A"/>
<path d="M49.4303 21.968L47.6407 10.3373C47.562 9.82593 47.3029 9.35955 46.9103 9.02256C46.5177 8.68556 46.0174 8.50021 45.5 8.50001C33.6548 8.50001 27.5838 2.68468 27.5318 2.63484C27.1259 2.2313 26.5767 2.00479 26.0043 2.00479C25.4319 2.00479 24.8828 2.2313 24.4768 2.63484C24.4162 2.68468 18.3452 8.50001 6.49999 8.50001C5.98257 8.50021 5.4823 8.68556 5.08967 9.02256C4.69704 9.35955 4.43797 9.82593 4.35932 10.3373L2.56966 21.968C1.76694 27.2514 2.60718 32.6538 4.9766 37.4438C7.34602 42.2338 11.1302 46.1799 15.8167 48.748L24.96 53.7313C25.2783 53.905 25.6352 53.9961 25.9978 53.9961C26.3605 53.9961 26.7173 53.905 27.0357 53.7313L36.179 48.748C40.8663 46.1806 44.6513 42.2347 47.0215 37.4446C49.3918 32.6546 50.2326 27.2518 49.4303 21.968ZM34.1077 44.9347L26 49.3655L17.8923 44.9433C13.9852 42.8045 10.8298 39.5166 8.85334 35.5249C6.87687 31.5332 6.17485 27.0306 6.84232 22.6267L8.35899 12.7878C14.685 12.6462 20.8258 10.6256 26 6.98334C31.1721 10.6252 37.3105 12.6464 43.6345 12.79L45.1512 22.6267C45.8192 27.0299 45.1182 31.5321 43.1429 35.5237C41.1676 39.5153 38.0135 42.8036 34.1077 44.9433V44.9347Z" fill="#6C2E7C"/>
<path d="M33.1348 19.9682L21.6667 31.4363L18.8652 28.6348C18.6653 28.4279 18.4262 28.2628 18.1619 28.1493C17.8975 28.0357 17.6132 27.976 17.3255 27.9735C17.0379 27.971 16.7525 28.0258 16.4863 28.1347C16.22 28.2437 15.9781 28.4046 15.7746 28.608C15.5712 28.8114 15.4103 29.0533 15.3014 29.3196C15.1924 29.5859 15.1376 29.8712 15.1401 30.1589C15.1426 30.4466 15.2024 30.7309 15.316 30.9952C15.4295 31.2596 15.5946 31.4986 15.8015 31.6985L20.1348 36.0318C20.5411 36.438 21.0921 36.6662 21.6667 36.6662C22.2412 36.6662 22.7922 36.438 23.1985 36.0318L36.1985 23.0318C36.5932 22.6232 36.8116 22.0759 36.8066 21.5078C36.8017 20.9397 36.5738 20.3963 36.1721 19.9946C35.7704 19.5929 35.227 19.365 34.6589 19.3601C34.0908 19.3551 33.5435 19.5735 33.1348 19.9682Z" fill="#6C2E7C"/>
<path d="M35.1433 110.85L26 115.833L16.8567 110.85C12.554 108.503 9.07884 104.887 6.90398 100.495C4.72912 96.1023 3.96015 91.1466 4.70168 86.3017L5.00501 84.3083L6.50001 74.6667C19.5 74.6667 26 68.1667 26 68.1667C26 68.1667 32.5 74.6667 45.5 74.6667L46.995 84.3083L47.2983 86.3017C48.0399 91.1466 47.2709 96.1023 45.096 100.495C42.9212 104.887 39.446 108.503 35.1433 110.85Z" fill="#56B54E"/>
<path d="M46.995 84.3083C46.2475 87.6178 44.8041 90.7302 42.7606 93.4387C40.7172 96.1471 38.1205 98.3895 35.1433 100.017L28.0735 103.869C27.4374 104.216 26.7245 104.397 26 104.397C25.2755 104.397 24.5626 104.216 23.9265 103.869L16.8567 100.017C13.8795 98.3895 11.2829 96.1471 9.23939 93.4387C7.19593 90.7302 5.75247 87.6178 5.005 84.3083L6.50001 74.6667C19.5 74.6667 26 68.1667 26 68.1667C26 68.1667 32.5 74.6667 45.5 74.6667L46.995 84.3083Z" fill="#60CC5A"/>
<path d="M49.4303 85.968L47.6407 74.3373C47.562 73.8259 47.3029 73.3595 46.9103 73.0225C46.5177 72.6855 46.0174 72.5002 45.5 72.5C33.6548 72.5 27.5838 66.6847 27.5318 66.6348C27.1259 66.2313 26.5767 66.0048 26.0043 66.0048C25.4319 66.0048 24.8828 66.2313 24.4768 66.6348C24.4162 66.6847 18.3452 72.5 6.49999 72.5C5.98257 72.5002 5.4823 72.6855 5.08967 73.0225C4.69704 73.3595 4.43797 73.8259 4.35932 74.3373L2.56966 85.968C1.76694 91.2513 2.60718 96.6538 4.9766 101.444C7.34602 106.234 11.1302 110.18 15.8167 112.748L24.96 117.731C25.2783 117.905 25.6352 117.996 25.9978 117.996C26.3605 117.996 26.7173 117.905 27.0357 117.731L36.179 112.748C40.8663 110.181 44.6513 106.235 47.0215 101.445C49.3918 96.6546 50.2326 91.2518 49.4303 85.968ZM34.1077 108.935L26 113.365L17.8923 108.943C13.9852 106.804 10.8298 103.517 8.85334 99.5249C6.87687 95.5332 6.17485 91.0306 6.84232 86.6267L8.35899 76.7878C14.685 76.6462 20.8258 74.6256 26 70.9833C31.1721 74.6252 37.3105 76.6464 43.6345 76.79L45.1512 86.6267C45.8192 91.0299 45.1182 95.532 43.1429 99.5237C41.1676 103.515 38.0135 106.804 34.1077 108.943V108.935Z" fill="#6C2E7C"/>
<path d="M33.1348 83.9682L21.6667 95.4363L18.8652 92.6348C18.6653 92.4279 18.4262 92.2628 18.1619 92.1493C17.8975 92.0357 17.6132 91.976 17.3255 91.9735C17.0379 91.971 16.7525 92.0258 16.4863 92.1347C16.22 92.2437 15.9781 92.4045 15.7746 92.608C15.5712 92.8114 15.4103 93.0533 15.3014 93.3196C15.1924 93.5859 15.1376 93.8712 15.1401 94.1589C15.1426 94.4466 15.2024 94.7309 15.316 94.9952C15.4295 95.2595 15.5946 95.4986 15.8015 95.6985L20.1348 100.032C20.5411 100.438 21.0921 100.666 21.6667 100.666C22.2412 100.666 22.7922 100.438 23.1985 100.032L36.1985 87.0318C36.5932 86.6232 36.8116 86.0759 36.8066 85.5078C36.8017 84.9397 36.5738 84.3963 36.1721 83.9946C35.7704 83.5928 35.227 83.365 34.6589 83.36C34.0908 83.3551 33.5435 83.5735 33.1348 83.9682Z" fill="#6C2E7C"/>
<path d="M35.1433 174.85L26 179.833L16.8567 174.85C12.554 172.503 9.07884 168.887 6.90398 164.495C4.72912 160.102 3.96015 155.147 4.70168 150.302L5.00501 148.308L6.50001 138.667C19.5 138.667 26 132.167 26 132.167C26 132.167 32.5 138.667 45.5 138.667L46.995 148.308L47.2983 150.302C48.0399 155.147 47.2709 160.102 45.096 164.495C42.9212 168.887 39.446 172.503 35.1433 174.85Z" fill="#56B54E"/>
<path d="M46.995 148.308C46.2475 151.618 44.8041 154.73 42.7606 157.439C40.7172 160.147 38.1205 162.389 35.1433 164.017L28.0735 167.869C27.4374 168.216 26.7245 168.397 26 168.397C25.2755 168.397 24.5626 168.216 23.9265 167.869L16.8567 164.017C13.8795 162.389 11.2829 160.147 9.23939 157.439C7.19593 154.73 5.75247 151.618 5.005 148.308L6.50001 138.667C19.5 138.667 26 132.167 26 132.167C26 132.167 32.5 138.667 45.5 138.667L46.995 148.308Z" fill="#60CC5A"/>
<path d="M49.4303 149.968L47.6407 138.337C47.562 137.826 47.3029 137.36 46.9103 137.023C46.5177 136.686 46.0174 136.5 45.5 136.5C33.6548 136.5 27.5838 130.685 27.5318 130.635C27.1259 130.231 26.5767 130.005 26.0043 130.005C25.4319 130.005 24.8828 130.231 24.4768 130.635C24.4162 130.685 18.3452 136.5 6.49999 136.5C5.98257 136.5 5.4823 136.686 5.08967 137.023C4.69704 137.36 4.43797 137.826 4.35932 138.337L2.56966 149.968C1.76694 155.251 2.60718 160.654 4.9766 165.444C7.34602 170.234 11.1302 174.18 15.8167 176.748L24.96 181.731C25.2783 181.905 25.6352 181.996 25.9978 181.996C26.3605 181.996 26.7173 181.905 27.0357 181.731L36.179 176.748C40.8663 174.181 44.6513 170.235 47.0215 165.445C49.3918 160.655 50.2326 155.252 49.4303 149.968ZM34.1077 172.935L26 177.365L17.8923 172.943C13.9852 170.804 10.8298 167.517 8.85334 163.525C6.87687 159.533 6.17485 155.031 6.84232 150.627L8.35899 140.788C14.685 140.646 20.8258 138.626 26 134.983C31.1721 138.625 37.3105 140.646 43.6345 140.79L45.1512 150.627C45.8192 155.03 45.1182 159.532 43.1429 163.524C41.1676 167.515 38.0135 170.804 34.1077 172.943V172.935Z" fill="#6C2E7C"/>
<path d="M33.1348 147.968L21.6667 159.436L18.8652 156.635C18.6653 156.428 18.4262 156.263 18.1619 156.149C17.8975 156.036 17.6132 155.976 17.3255 155.973C17.0379 155.971 16.7525 156.026 16.4863 156.135C16.22 156.244 15.9781 156.405 15.7746 156.608C15.5712 156.811 15.4103 157.053 15.3014 157.32C15.1924 157.586 15.1376 157.871 15.1401 158.159C15.1426 158.447 15.2024 158.731 15.316 158.995C15.4295 159.26 15.5946 159.499 15.8015 159.698L20.1348 164.032C20.5411 164.438 21.0921 164.666 21.6667 164.666C22.2412 164.666 22.7922 164.438 23.1985 164.032L36.1985 151.032C36.5932 150.623 36.8116 150.076 36.8066 149.508C36.8017 148.94 36.5738 148.396 36.1721 147.995C35.7704 147.593 35.227 147.365 34.6589 147.36C34.0908 147.355 33.5435 147.573 33.1348 147.968Z" fill="#6C2E7C"/>
<path d="M174.254 38.3627L168.082 46.3842C167.442 47.2145 168.037 48.4219 169.087 48.4219H172.434C172.699 48.4219 172.96 48.3383 173.175 48.1814L193.777 33.3027" stroke="black" stroke-width="3.125" stroke-miterlimit="10" stroke-linecap="round" stroke-linejoin="round"/>
<path d="M211.547 23.1094H194.359L179.552 3.36563C179.324 3.03403 178.944 2.85938 178.539 2.85938H174.464C173.654 2.85938 173.046 3.64659 173.249 4.42875L177.906 23.1094H161.63C159.934 23.1094 158.365 22.2741 157.428 20.8566L154.239 16.0725C154.011 15.7181 153.606 15.5156 153.176 15.5156H150.594C149.708 15.5156 149.101 16.3763 149.404 17.2116L152.113 24.8306C153.935 29.8678 158.694 33.2344 164.035 33.2344H218.913C220.735 33.2344 222.203 31.7662 222.203 29.9437C222.203 28.83 221.646 27.8175 220.735 27.1847L217.166 24.8053C215.495 23.6916 213.546 23.1094 211.547 23.1094Z" stroke="black" stroke-width="3.125" stroke-miterlimit="10" stroke-linecap="round" stroke-linejoin="round"/>
<path d="M204.738 28.1719H204.484" stroke="black" stroke-width="3.125" stroke-miterlimit="10" stroke-linecap="round" stroke-linejoin="round"/>
<path d="M199.675 28.1719H199.422" stroke="black" stroke-width="3.125" stroke-miterlimit="10" stroke-linecap="round" stroke-linejoin="round"/>
<path d="M194.613 28.1719H194.359" stroke="black" stroke-width="3.125" stroke-miterlimit="10" stroke-linecap="round" stroke-linejoin="round"/>
<path d="M189.55 28.1719H189.297" stroke="black" stroke-width="3.125" stroke-miterlimit="10" stroke-linecap="round" stroke-linejoin="round"/>
<path d="M184.488 28.1719H184.234" stroke="black" stroke-width="3.125" stroke-miterlimit="10" stroke-linecap="round" stroke-linejoin="round"/>
<path d="M179.425 28.1719H179.172" stroke="black" stroke-width="3.125" stroke-miterlimit="10" stroke-linecap="round" stroke-linejoin="round"/>
<path d="M174.363 28.1719H174.109" stroke="black" stroke-width="3.125" stroke-miterlimit="10" stroke-linecap="round" stroke-linejoin="round"/>
<path d="M169.3 28.1719H169.047" stroke="black" stroke-width="3.125" stroke-miterlimit="10" stroke-linecap="round" stroke-linejoin="round"/>
<path d="M165.328 55.3803C163.797 52.7326 160.934 50.9531 157.656 50.9531C152.761 50.9531 148.797 54.9171 148.797 59.8125C148.797 64.7054 152.761 68.6719 157.656 68.6719" stroke="black" stroke-width="3.125" stroke-miterlimit="10" stroke-linecap="round"/>
<path d="M172.841 66.1457C173.636 65.0876 174.109 63.7688 174.109 62.3437C174.109 58.8481 171.277 56.0156 167.781 56.0156C165.933 56.0156 164.265 56.8079 163.109 58.0735" stroke="black" stroke-width="3.125" stroke-miterlimit="10" stroke-linecap="round" stroke-linejoin="round"/>
<path d="M188.679 56.0131C190.244 51.591 194.463 48.4219 199.422 48.4219C203.753 48.4219 207.519 50.8392 209.446 54.3956" stroke="black" stroke-width="3.125" stroke-miterlimit="10" stroke-linecap="round" stroke-linejoin="round"/>
<path d="M179.276 66.2292C179.207 65.7888 179.172 65.3357 179.172 64.875C179.172 59.9796 183.136 56.0156 188.031 56.0156C189.421 56.0156 190.737 56.3371 191.907 56.9092" stroke="black" stroke-width="3.125" stroke-miterlimit="10" stroke-linecap="round" stroke-linejoin="round"/>
<path d="M205.337 58.5443C206.757 55.5524 209.81 53.4844 213.344 53.4844C218.239 53.4844 222.203 57.4483 222.203 62.3438C222.203 67.2367 218.239 71.2031 213.344 71.2031H186.766" stroke="black" stroke-width="3.125" stroke-miterlimit="10" stroke-linecap="round" stroke-linejoin="round"/>
<g clip-path="url(#clip1_0_1)">
<path d="M295.532 180.714H266.242V281H295.532V180.714Z" fill="#E2804F"/>
<path d="M285.664 180.714H267.358L267.497 281H247.524L247.836 212.551H226.766V127.228H285.664V180.714Z" fill="#F2BF7E"/>
<path d="M246.592 212.675H209.958V281H246.592V212.675Z" fill="#D4E4AC"/>
<path d="M210.211 281V144.42H161.501V188.355H181.95L182.093 281H210.211Z" fill="#E2804F"/>
<path d="M142.907 281V188.272H181.95V281" fill="#F2BF7E"/>
<path d="M184.391 281H179.51V190.712H145.347V281H140.467V185.832H184.391V281Z" fill="black"/>
<path d="M153.86 195.359H149.084V202.682H153.86V195.359Z" fill="black"/>
<path d="M163.728 195.359H158.952V202.682H163.728V195.359Z" fill="white"/>
<path d="M173.279 195.359H168.504V202.682H173.279V195.359Z" fill="black"/>
<path d="M153.86 210.323H149.084V217.327H153.86V210.323Z" fill="white"/>
<path d="M163.728 210.323H158.952V217.327H163.728V210.323Z" fill="black"/>
<path d="M173.279 210.323H168.504V217.327H173.279V210.323Z" fill="white"/>
<path d="M153.86 224.967H149.084V232.29H153.86V224.967Z" fill="black"/>
<path d="M163.728 224.967H158.952V232.29H163.728V224.967Z" fill="white"/>
<path d="M173.279 224.967H168.504V232.29H173.279V224.967Z" fill="black"/>
<path d="M153.86 239.612H149.084V246.616H153.86V239.612Z" fill="black"/>
<path d="M163.728 239.612H158.952V246.616H163.728V239.612Z" fill="white"/>
<path d="M173.279 239.612H168.504V246.616H173.279V239.612Z" fill="black"/>
<path d="M153.86 254.257H149.084V261.58H153.86V254.257Z" fill="black"/>
<path d="M163.728 254.257H158.952V261.58H163.728V254.257Z" fill="black"/>
<path d="M173.279 254.257H168.504V261.58H173.279V254.257Z" fill="white"/>
<path d="M153.86 268.584H149.084V275.906H153.86V268.584Z" fill="black"/>
<path d="M163.728 268.584H158.952V275.906H163.728V268.584Z" fill="black"/>
<path d="M173.279 268.584H168.504V275.906H173.279V268.584Z" fill="white"/>
<path d="M212.439 281H207.664V146.967H163.729V183.261H158.954V142.192H212.439V281Z" fill="black"/>
<path d="M249.052 281H244.276V214.78H214.986V210.004H249.052V281Z" fill="black"/>
<path d="M229.313 208.094H224.537V125H288.211V176.257H283.435V129.775H229.313V208.094Z" fill="black"/>
<path d="M268.472 281H263.696V178.486H295.533V183.261H268.472V281Z" fill="black"/>
<path d="M173.279 154.29H168.504V161.294H173.279V154.29Z" fill="black"/>
<path d="M183.148 154.29H178.373V161.294H183.148V154.29Z" fill="white"/>
<path d="M193.017 154.29H188.242V161.294H193.017V154.29Z" fill="black"/>
<path d="M202.887 154.29H198.112V161.294H202.887V154.29Z" fill="black"/>
<path d="M173.279 168.935H168.504V176.257H173.279V168.935Z" fill="black"/>
<path d="M183.148 168.935H178.373V176.257H183.148V168.935Z" fill="black"/>
<path d="M193.017 168.935H188.242V176.257H193.017V168.935Z" fill="white"/>
<path d="M202.887 168.935H198.112V176.257H202.887V168.935Z" fill="black"/>
<path d="M193.017 183.261H188.242V190.902H193.017V183.261Z" fill="black"/>
<path d="M202.887 183.261H198.112V190.902H202.887V183.261Z" fill="white"/>
<path d="M193.017 198.225H188.242V205.547H193.017V198.225Z" fill="black"/>
<path d="M202.887 198.225H198.112V205.547H202.887V198.225Z" fill="black"/>
<path d="M193.017 212.551H188.242V219.874H193.017V212.551Z" fill="white"/>
<path d="M202.887 212.551H198.112V219.874H202.887V212.551Z" fill="black"/>
<path d="M193.017 227.514H188.242V234.518H193.017V227.514Z" fill="white"/>
<path d="M202.887 227.514H198.112V234.518H202.887V227.514Z" fill="black"/>
<path d="M193.017 242.159H188.242V249.163H193.017V242.159Z" fill="black"/>
<path d="M202.887 242.159H198.112V249.163H202.887V242.159Z" fill="black"/>
<path d="M193.017 256.804H188.242V264.127H193.017V256.804Z" fill="black"/>
<path d="M202.887 256.804H198.112V264.127H202.887V256.804Z" fill="white"/>
<path d="M193.017 271.131H188.242V278.772H193.017V271.131Z" fill="white"/>
<path d="M202.887 271.131H198.112V278.772H202.887V271.131Z" fill="black"/>
<path d="M239.181 137.098H234.406V144.42H239.181V137.098Z" fill="black"/>
<path d="M249.05 137.098H244.275V144.42H249.05V137.098Z" fill="white"/>
<path d="M258.92 137.098H254.144V144.42H258.92V137.098Z" fill="white"/>
<path d="M268.471 137.098H263.695V144.42H268.471V137.098Z" fill="white"/>
<path d="M278.34 137.098H273.565V144.42H278.34V137.098Z" fill="black"/>
<path d="M239.181 151.425H234.406V159.066H239.181V151.425Z" fill="black"/>
<path d="M249.05 151.425H244.275V159.066H249.05V151.425Z" fill="black"/>
<path d="M258.92 151.425H254.144V159.066H258.92V151.425Z" fill="black"/>
<path d="M268.471 151.425H263.695V159.066H268.471V151.425Z" fill="black"/>
<path d="M278.34 151.425H273.565V159.066H278.34V151.425Z" fill="white"/>
<path d="M239.181 166.069H234.406V173.71H239.181V166.069Z" fill="black"/>
<path d="M249.05 166.069H244.275V173.71H249.05V166.069Z" fill="black"/>
<path d="M258.92 166.069H254.144V173.71H258.92V166.069Z" fill="white"/>
<path d="M268.471 166.069H263.695V173.71H268.471V166.069Z" fill="white"/>
<path d="M278.34 166.069H273.565V173.71H278.34V166.069Z" fill="black"/>
<path d="M239.181 180.714H234.406V188.355H239.181V180.714Z" fill="black"/>
<path d="M249.05 180.714H244.275V188.355H249.05V180.714Z" fill="white"/>
<path d="M258.92 180.714H254.144V188.355H258.92V180.714Z" fill="black"/>
<path d="M239.181 195.359H234.406V202.682H239.181V195.359Z" fill="black"/>
<path d="M249.05 195.359H244.275V202.682H249.05V195.359Z" fill="white"/>
<path d="M258.92 195.359H254.144V202.682H258.92V195.359Z" fill="black"/>
<path d="M258.92 210.323H254.144V217.327H258.92V210.323Z" fill="black"/>
<path d="M258.92 224.967H254.144V232.29H258.92V224.967Z" fill="white"/>
<path d="M258.92 239.612H254.144V246.616H258.92V239.612Z" fill="black"/>
<path d="M258.92 254.257H254.144V261.58H258.92V254.257Z" fill="white"/>
<path d="M258.92 268.584H254.144V275.906H258.92V268.584Z" fill="black"/>
<path d="M280.887 193.131H276.112V200.453H280.887V193.131Z" fill="black"/>
<path d="M280.887 208.094H276.112V214.78H280.887V208.094Z" fill="black"/>
<path d="M280.887 222.42H276.112V229.743H280.887V222.42Z" fill="white"/>
<path d="M280.887 236.747H276.112V244.069H280.887V236.747Z" fill="black"/>
<path d="M280.887 251.71H276.112V259.033H280.887V251.71Z" fill="black"/>
<path d="M280.887 266.037H276.112V273.996H280.887V266.037Z" fill="black"/>
<path d="M219.442 222.42H214.667V229.743H219.442V222.42Z" fill="black"/>
<path d="M229.312 222.42H224.536V229.743H229.312V222.42Z" fill="white"/>
<path d="M239.181 222.42H234.406V229.743H239.181V222.42Z" fill="black"/>
<path d="M219.442 236.747H214.667V244.069H219.442V236.747Z" fill="black"/>
<path d="M229.312 236.747H224.536V244.069H229.312V236.747Z" fill="black"/>
<path d="M239.181 236.747H234.406V244.069H239.181V236.747Z" fill="white"/>
<path d="M219.442 251.71H214.667V259.033H219.442V251.71Z" fill="black"/>
<path d="M229.312 251.71H224.536V259.033H229.312V251.71Z" fill="black"/>
<path d="M239.181 251.71H234.406V259.033H239.181V251.71Z" fill="black"/>
<path d="M219.442 266.037H214.667V273.996H219.442V266.037Z" fill="white"/>
<path d="M229.312 266.037H224.536V273.996H229.312V266.037Z" fill="black"/>
<path d="M239.181 266.037H234.406V273.996H239.181V266.037Z" fill="black"/>
</g>
<path d="M14.0898 240.068C16.3293 240.068 18.175 241.889 18.175 244.153C18.175 246.417 16.3539 248.213 14.0898 248.213C11.8258 248.213 10.0047 246.392 10.0047 244.128C10.0047 241.864 11.8504 240.068 14.0898 240.068ZM24.8441 240.068C27.0836 240.068 28.9293 241.889 28.9293 244.153C28.9293 246.417 27.1082 248.238 24.8441 248.238C22.5801 248.238 20.759 246.417 20.759 244.153C20.759 241.889 22.6047 240.068 24.8441 240.068ZM19.307 229.929C21.5465 229.929 23.3922 231.75 23.3922 234.014C23.3922 236.278 21.5711 238.074 19.307 238.074C17.043 238.074 15.2219 236.253 15.2219 233.989C15.2219 231.725 17.0676 229.929 19.307 229.929ZM30.3074 229.929C32.5469 229.929 34.3926 231.75 34.3926 234.014C34.3926 236.278 32.5715 238.074 30.3074 238.074C28.0434 238.074 26.2223 236.253 26.2223 233.989C26.2223 231.725 28.068 229.929 30.3074 229.929ZM40.7418 229.929C42.9813 229.929 44.827 231.75 44.827 234.014C44.827 236.278 43.0059 238.074 40.7418 238.074C38.4777 238.074 36.6566 236.253 36.6566 233.989C36.6566 231.725 38.5024 229.929 40.7418 229.929ZM51.127 229.929C53.3664 229.929 55.2121 231.75 55.2121 234.014C55.2121 236.278 53.391 238.074 51.127 238.074C48.8629 238.074 47.0664 236.253 47.0664 234.014C47.0664 231.774 48.8875 229.929 51.127 229.929ZM46.1066 240.068C48.3461 240.068 50.1918 241.889 50.1918 244.153C50.1918 246.417 48.3707 248.238 46.1066 248.238C43.8672 248.238 42.0215 246.417 42.0215 244.153C42.0215 241.889 43.8426 240.068 46.1066 240.068ZM35.0324 240.068C37.2719 240.068 39.1176 241.889 39.1176 244.153C39.1176 246.392 37.2965 248.238 35.0324 248.238C32.7684 248.238 30.9473 246.417 30.9473 244.153C30.9473 241.889 32.7684 240.068 35.0324 240.068ZM56.8117 240.068C59.0512 240.068 60.8969 241.889 60.8969 244.153C60.8969 246.392 59.0758 248.238 56.8117 248.238C54.5477 248.238 52.7266 246.417 52.7266 244.153C52.7512 241.889 54.5723 240.068 56.8117 240.068ZM14.1145 240.166C16.3293 240.166 18.1258 241.963 18.1258 244.177C18.1258 246.392 16.3293 248.189 14.1145 248.189C11.8996 248.189 10.1031 246.392 10.1031 244.177C10.1031 241.963 11.8996 240.166 14.1145 240.166ZM18.6426 248.976H14.0652H9.46329C6.68243 248.976 4.91055 251.265 4.91055 254.169V267.359C4.91055 269.746 8.03594 269.746 8.03594 267.359V255.005C8.03594 254.71 8.28204 254.513 8.52813 254.513C8.82344 254.513 9.02032 254.71 9.02032 255.005V284.98C9.02032 286.21 10.0047 287.219 11.2598 287.219C12.4902 287.219 13.4992 286.235 13.4992 284.98V270.066C13.4992 269.771 13.7453 269.574 13.9914 269.574H14.0898C14.3852 269.574 14.582 269.82 14.582 270.066V284.98C14.582 286.21 15.5664 287.219 16.8215 287.219C18.052 287.219 19.0609 286.235 19.0609 284.98V254.981C19.0609 254.686 19.307 254.489 19.5531 254.489C19.8484 254.489 20.0453 254.735 20.0453 254.981V267.384C20.0453 269.771 23.1707 269.771 23.1707 267.384V254.193C23.2445 251.265 21.4973 248.976 18.6426 248.976ZM39.6098 248.976H35.0078H30.4059C27.625 248.976 25.8531 251.265 25.8531 254.169V267.359C25.8531 269.746 28.9785 269.746 28.9785 267.359V255.005C28.9785 254.71 29.2246 254.513 29.4707 254.513C29.766 254.513 29.9629 254.71 29.9629 255.005V284.98C29.9629 286.21 30.9473 287.219 32.2024 287.219C33.4328 287.219 34.4418 286.235 34.4418 284.98V270.066C34.4418 269.771 34.6879 269.574 34.934 269.574H35.0324C35.3277 269.574 35.5246 269.82 35.5246 270.066V284.98C35.5246 286.21 36.509 287.219 37.7641 287.219C38.9945 287.219 40.0035 286.235 40.0035 284.98V254.981C40.0035 254.686 40.2496 254.489 40.4957 254.489C40.791 254.489 40.9879 254.735 40.9879 254.981V267.384C40.9879 269.771 44.1133 269.771 44.1133 267.384V254.193C44.2117 251.265 42.4645 248.976 39.6098 248.976ZM61.5121 248.976H56.9102H52.3082C49.5274 248.976 47.7555 251.265 47.7555 254.169V267.359C47.7555 269.746 50.8809 269.746 50.8809 267.359V255.005C50.8809 254.71 51.127 254.513 51.3731 254.513C51.6684 254.513 51.8652 254.71 51.8652 255.005V284.98C51.8652 286.21 52.8496 287.219 54.1047 287.219C55.3352 287.219 56.3441 286.235 56.3441 284.98V270.066C56.3441 269.771 56.5902 269.574 56.8363 269.574H56.9348C57.2301 269.574 57.427 269.82 57.427 270.066V284.98C57.427 286.21 58.4113 287.219 59.6664 287.219C60.8969 287.219 61.9059 286.235 61.9059 284.98V254.981C61.9059 254.686 62.152 254.489 62.3981 254.489C62.6934 254.489 62.8902 254.735 62.8902 254.981V267.384C62.8902 269.771 66.0156 269.771 66.0156 267.384V254.193C66.1141 251.265 64.3668 248.976 61.5121 248.976Z" fill="black"/>
<path d="M78.0898 240.068C80.3293 240.068 82.175 241.889 82.175 244.153C82.175 246.417 80.3539 248.213 78.0898 248.213C75.8258 248.213 74.0047 246.392 74.0047 244.128C74.0047 241.864 75.8504 240.068 78.0898 240.068ZM88.8441 240.068C91.0836 240.068 92.9293 241.889 92.9293 244.153C92.9293 246.417 91.1082 248.238 88.8441 248.238C86.5801 248.238 84.759 246.417 84.759 244.153C84.759 241.889 86.6047 240.068 88.8441 240.068ZM83.307 229.929C85.5465 229.929 87.3922 231.75 87.3922 234.014C87.3922 236.278 85.5711 238.074 83.307 238.074C81.043 238.074 79.2219 236.253 79.2219 233.989C79.2219 231.725 81.0676 229.929 83.307 229.929ZM94.3074 229.929C96.5469 229.929 98.3926 231.75 98.3926 234.014C98.3926 236.278 96.5715 238.074 94.3074 238.074C92.0434 238.074 90.2223 236.253 90.2223 233.989C90.2223 231.725 92.068 229.929 94.3074 229.929ZM104.742 229.929C106.981 229.929 108.827 231.75 108.827 234.014C108.827 236.278 107.006 238.074 104.742 238.074C102.478 238.074 100.657 236.253 100.657 233.989C100.657 231.725 102.502 229.929 104.742 229.929ZM115.127 229.929C117.366 229.929 119.212 231.75 119.212 234.014C119.212 236.278 117.391 238.074 115.127 238.074C112.863 238.074 111.066 236.253 111.066 234.014C111.066 231.774 112.888 229.929 115.127 229.929ZM110.107 240.068C112.346 240.068 114.192 241.889 114.192 244.153C114.192 246.417 112.371 248.238 110.107 248.238C107.867 248.238 106.021 246.417 106.021 244.153C106.021 241.889 107.843 240.068 110.107 240.068ZM99.0324 240.068C101.272 240.068 103.118 241.889 103.118 244.153C103.118 246.392 101.296 248.238 99.0324 248.238C96.7684 248.238 94.9473 246.417 94.9473 244.153C94.9473 241.889 96.7684 240.068 99.0324 240.068ZM120.812 240.068C123.051 240.068 124.897 241.889 124.897 244.153C124.897 246.392 123.076 248.238 120.812 248.238C118.548 248.238 116.727 246.417 116.727 244.153C116.751 241.889 118.572 240.068 120.812 240.068ZM78.1145 240.166C80.3293 240.166 82.1258 241.963 82.1258 244.177C82.1258 246.392 80.3293 248.189 78.1145 248.189C75.8996 248.189 74.1031 246.392 74.1031 244.177C74.1031 241.963 75.8996 240.166 78.1145 240.166ZM82.6426 248.976H78.0652H73.4633C70.6824 248.976 68.9106 251.265 68.9106 254.169V267.359C68.9106 269.746 72.0359 269.746 72.0359 267.359V255.005C72.0359 254.71 72.282 254.513 72.5281 254.513C72.8234 254.513 73.0203 254.71 73.0203 255.005V284.98C73.0203 286.21 74.0047 287.219 75.2598 287.219C76.4902 287.219 77.4992 286.235 77.4992 284.98V270.066C77.4992 269.771 77.7453 269.574 77.9914 269.574H78.0898C78.3852 269.574 78.582 269.82 78.582 270.066V284.98C78.582 286.21 79.5664 287.219 80.8215 287.219C82.052 287.219 83.0609 286.235 83.0609 284.98V254.981C83.0609 254.686 83.307 254.489 83.5531 254.489C83.8484 254.489 84.0453 254.735 84.0453 254.981V267.384C84.0453 269.771 87.1707 269.771 87.1707 267.384V254.193C87.2445 251.265 85.4973 248.976 82.6426 248.976ZM103.61 248.976H99.0078H94.4059C91.625 248.976 89.8531 251.265 89.8531 254.169V267.359C89.8531 269.746 92.9785 269.746 92.9785 267.359V255.005C92.9785 254.71 93.2246 254.513 93.4707 254.513C93.766 254.513 93.9629 254.71 93.9629 255.005V284.98C93.9629 286.21 94.9473 287.219 96.2024 287.219C97.4328 287.219 98.4418 286.235 98.4418 284.98V270.066C98.4418 269.771 98.6879 269.574 98.934 269.574H99.0324C99.3277 269.574 99.5246 269.82 99.5246 270.066V284.98C99.5246 286.21 100.509 287.219 101.764 287.219C102.995 287.219 104.004 286.235 104.004 284.98V254.981C104.004 254.686 104.25 254.489 104.496 254.489C104.791 254.489 104.988 254.735 104.988 254.981V267.384C104.988 269.771 108.113 269.771 108.113 267.384V254.193C108.212 251.265 106.464 248.976 103.61 248.976ZM125.512 248.976H120.91H116.308C113.527 248.976 111.755 251.265 111.755 254.169V267.359C111.755 269.746 114.881 269.746 114.881 267.359V255.005C114.881 254.71 115.127 254.513 115.373 254.513C115.668 254.513 115.865 254.71 115.865 255.005V284.98C115.865 286.21 116.85 287.219 118.105 287.219C119.335 287.219 120.344 286.235 120.344 284.98V270.066C120.344 269.771 120.59 269.574 120.836 269.574H120.935C121.23 269.574 121.427 269.82 121.427 270.066V284.98C121.427 286.21 122.411 287.219 123.666 287.219C124.897 287.219 125.906 286.235 125.906 284.98V254.981C125.906 254.686 126.152 254.489 126.398 254.489C126.693 254.489 126.89 254.735 126.89 254.981V267.384C126.89 269.771 130.016 269.771 130.016 267.384V254.193C130.114 251.265 128.367 248.976 125.512 248.976Z" fill="black"/>
<path d="M57.0898 240.068C59.3293 240.068 61.175 241.889 61.175 244.153C61.175 246.417 59.3539 248.213 57.0898 248.213C54.8258 248.213 53.0047 246.392 53.0047 244.128C53.0047 241.864 54.8504 240.068 57.0898 240.068ZM67.8441 240.068C70.0836 240.068 71.9293 241.889 71.9293 244.153C71.9293 246.417 70.1082 248.238 67.8441 248.238C65.5801 248.238 63.759 246.417 63.759 244.153C63.759 241.889 65.6047 240.068 67.8441 240.068ZM62.307 229.929C64.5465 229.929 66.3922 231.75 66.3922 234.014C66.3922 236.278 64.5711 238.074 62.307 238.074C60.043 238.074 58.2219 236.253 58.2219 233.989C58.2219 231.725 60.0676 229.929 62.307 229.929ZM73.3074 229.929C75.5469 229.929 77.3926 231.75 77.3926 234.014C77.3926 236.278 75.5715 238.074 73.3074 238.074C71.0434 238.074 69.2223 236.253 69.2223 233.989C69.2223 231.725 71.068 229.929 73.3074 229.929ZM83.7418 229.929C85.9813 229.929 87.827 231.75 87.827 234.014C87.827 236.278 86.0059 238.074 83.7418 238.074C81.4777 238.074 79.6566 236.253 79.6566 233.989C79.6566 231.725 81.5024 229.929 83.7418 229.929ZM94.127 229.929C96.3664 229.929 98.2121 231.75 98.2121 234.014C98.2121 236.278 96.391 238.074 94.127 238.074C91.8629 238.074 90.0664 236.253 90.0664 234.014C90.0664 231.774 91.8875 229.929 94.127 229.929ZM89.1066 240.068C91.3461 240.068 93.1918 241.889 93.1918 244.153C93.1918 246.417 91.3707 248.238 89.1066 248.238C86.8672 248.238 85.0215 246.417 85.0215 244.153C85.0215 241.889 86.8426 240.068 89.1066 240.068ZM78.0324 240.068C80.2719 240.068 82.1176 241.889 82.1176 244.153C82.1176 246.392 80.2965 248.238 78.0324 248.238C75.7684 248.238 73.9473 246.417 73.9473 244.153C73.9473 241.889 75.7684 240.068 78.0324 240.068ZM99.8117 240.068C102.051 240.068 103.897 241.889 103.897 244.153C103.897 246.392 102.076 248.238 99.8117 248.238C97.5477 248.238 95.7266 246.417 95.7266 244.153C95.7512 241.889 97.5723 240.068 99.8117 240.068ZM57.1145 240.166C59.3293 240.166 61.1258 241.963 61.1258 244.177C61.1258 246.392 59.3293 248.189 57.1145 248.189C54.8996 248.189 53.1031 246.392 53.1031 244.177C53.1031 241.963 54.8996 240.166 57.1145 240.166ZM61.6426 248.976H57.0652H52.4633C49.6824 248.976 47.9106 251.265 47.9106 254.169V267.359C47.9106 269.746 51.0359 269.746 51.0359 267.359V255.005C51.0359 254.71 51.282 254.513 51.5281 254.513C51.8234 254.513 52.0203 254.71 52.0203 255.005V284.98C52.0203 286.21 53.0047 287.219 54.2598 287.219C55.4902 287.219 56.4992 286.235 56.4992 284.98V270.066C56.4992 269.771 56.7453 269.574 56.9914 269.574H57.0898C57.3852 269.574 57.582 269.82 57.582 270.066V284.98C57.582 286.21 58.5664 287.219 59.8215 287.219C61.052 287.219 62.0609 286.235 62.0609 284.98V254.981C62.0609 254.686 62.307 254.489 62.5531 254.489C62.8484 254.489 63.0453 254.735 63.0453 254.981V267.384C63.0453 269.771 66.1707 269.771 66.1707 267.384V254.193C66.2445 251.265 64.4973 248.976 61.6426 248.976ZM82.6098 248.976H78.0078H73.4059C70.625 248.976 68.8531 251.265 68.8531 254.169V267.359C68.8531 269.746 71.9785 269.746 71.9785 267.359V255.005C71.9785 254.71 72.2246 254.513 72.4707 254.513C72.766 254.513 72.9629 254.71 72.9629 255.005V284.98C72.9629 286.21 73.9473 287.219 75.2024 287.219C76.4328 287.219 77.4418 286.235 77.4418 284.98V270.066C77.4418 269.771 77.6879 269.574 77.934 269.574H78.0324C78.3277 269.574 78.5246 269.82 78.5246 270.066V284.98C78.5246 286.21 79.509 287.219 80.7641 287.219C81.9945 287.219 83.0035 286.235 83.0035 284.98V254.981C83.0035 254.686 83.2496 254.489 83.4957 254.489C83.791 254.489 83.9879 254.735 83.9879 254.981V267.384C83.9879 269.771 87.1133 269.771 87.1133 267.384V254.193C87.2117 251.265 85.4645 248.976 82.6098 248.976ZM104.512 248.976H99.9102H95.3082C92.5274 248.976 90.7555 251.265 90.7555 254.169V267.359C90.7555 269.746 93.8809 269.746 93.8809 267.359V255.005C93.8809 254.71 94.127 254.513 94.3731 254.513C94.6684 254.513 94.8652 254.71 94.8652 255.005V284.98C94.8652 286.21 95.8496 287.219 97.1047 287.219C98.3352 287.219 99.3441 286.235 99.3441 284.98V270.066C99.3441 269.771 99.5902 269.574 99.8363 269.574H99.9348C100.23 269.574 100.427 269.82 100.427 270.066V284.98C100.427 286.21 101.411 287.219 102.666 287.219C103.897 287.219 104.906 286.235 104.906 284.98V254.981C104.906 254.686 105.152 254.489 105.398 254.489C105.693 254.489 105.89 254.735 105.89 254.981V267.384C105.89 269.771 109.016 269.771 109.016 267.384V254.193C109.114 251.265 107.367 248.976 104.512 248.976Z" fill="black"/>
<g clip-path="url(#clip2_0_1)">
<path d="M111.382 96.3561C110.711 96.358 110.056 96.5566 109.497 96.9273C108.938 97.2979 108.5 97.8243 108.237 98.4414C99.9683 98.914 93.9742 99.7087 94 100.33C94.024 100.947 99.9737 101.217 108.176 100.974C108.461 101.741 109.009 102.381 109.723 102.778H108.391V105.219H106.763C106.66 105.219 106.559 105.239 106.465 105.278C106.37 105.317 106.284 105.374 106.212 105.446C106.14 105.518 106.082 105.604 106.043 105.699C106.004 105.793 105.984 105.894 105.984 105.997V107.736C105.984 108.166 106.332 108.513 106.762 108.513H117.723C120.485 109.163 120.793 110.154 122.862 111.967C122.524 113.847 122.025 115.9 121.635 117.675V132.781C121.635 133.275 121.832 133.749 122.181 134.098C122.53 134.447 123.004 134.643 123.498 134.643C123.992 134.643 124.465 134.447 124.815 134.098C125.164 133.749 125.36 133.275 125.36 132.781V125.477C125.317 119.336 126.309 116.853 129.725 112.099L130.584 111.701C130.584 115.391 133.135 115.612 136.732 116.435H134.03C133.208 116.435 132.541 117.103 132.541 117.926V126.826C132.541 127.648 133.208 128.316 134.03 128.316H142.97C143.792 128.316 144.459 127.648 144.459 126.826V117.926C144.459 117.103 143.792 116.436 142.97 116.436H140.27C143.867 115.61 146.416 115.39 146.416 111.701L147.275 112.099C151.597 116.572 151.64 119.617 151.64 125.476V132.78C151.64 133.274 151.836 133.748 152.185 134.097C152.535 134.446 153.008 134.643 153.502 134.643C153.996 134.643 154.47 134.446 154.819 134.097C155.168 133.748 155.365 133.274 155.365 132.78V117.675C154.908 115.725 154.419 113.682 153.958 111.657C155.916 109.739 156.718 109.307 159.259 108.513H170.238C170.445 108.513 170.642 108.432 170.788 108.286C170.934 108.14 171.016 107.942 171.016 107.736V105.997C171.016 105.79 170.934 105.592 170.788 105.447C170.642 105.301 170.445 105.219 170.238 105.219H168.609V102.778H167.277C167.991 102.381 168.54 101.741 168.824 100.974C177.026 101.217 182.976 100.947 183 100.33C183.026 99.7087 177.032 98.9148 168.763 98.4414C168.509 97.8463 168.092 97.3351 167.561 96.9669C167.029 96.5986 166.404 96.3882 165.758 96.3601C165.112 96.332 164.471 96.4873 163.909 96.808C163.347 97.1287 162.888 97.6018 162.583 98.1726C154.3 97.9207 148.252 98.1886 148.217 98.8098C148.191 99.4266 154.104 100.216 162.303 100.69C162.423 101.129 162.63 101.54 162.911 101.899C163.192 102.257 163.542 102.556 163.94 102.778H162.608V105.219C154.212 105.199 147.713 100.98 138.5 100.806C129.597 100.995 122.142 105.219 114.392 105.219V102.778H113.06C113.458 102.556 113.808 102.257 114.089 101.899C114.37 101.54 114.577 101.129 114.697 100.69C122.896 100.216 128.809 99.4257 128.783 98.8098C128.748 98.1886 122.7 97.9198 114.417 98.1726C114.123 97.6227 113.686 97.1631 113.151 96.8432C112.617 96.5233 112.005 96.3543 111.382 96.3561ZM138.5 118.618C140.589 118.618 142.306 120.334 142.306 122.423C142.306 124.512 140.589 126.23 138.5 126.23C136.411 126.23 134.693 124.512 134.693 122.423C134.693 120.334 136.41 118.618 138.5 118.618ZM138.5 120.852C137.619 120.852 136.927 121.542 136.927 122.423C136.927 123.304 137.619 123.995 138.5 123.995C139.381 123.995 140.071 123.304 140.071 122.423C140.071 121.542 139.381 120.852 138.5 120.852Z" fill="#F60101"/>
</g>
</g>
<defs>
<clipPath id="clip0_0_1">
<rect width="280" height="280" fill="white"/>
</clipPath>
<clipPath id="clip1_0_1">
<rect width="156" height="156" fill="white" transform="translate(140 125)"/>
</clipPath>
<clipPath id="clip2_0_1">
<rect width="89" height="89" fill="white" transform="translate(94 71)"/>
</clipPath>
</defs>
</svg>
