<svg id="visual" viewBox="0 0 960 300" width="960" height="300" xmlns="http://www.w3.org/2000/svg" xmlns:xlink="http://www.w3.org/1999/xlink" version="1.1"><rect x="0" y="0" width="960" height="300" fill="#FF0066"></rect><g transform="translate(466.9100322706401 142.8760165869106)"><path d="M78.2 -103C102 -90.4 122.3 -68.4 123.9 -44.7C125.5 -21 108.4 4.3 98 30.4C87.5 56.5 83.7 83.2 68.5 101.6C53.3 120 26.6 130 -1.2 131.6C-29 133.2 -58 126.5 -75.1 108.7C-92.2 90.9 -97.5 62.2 -97.8 37.4C-98.2 12.6 -93.7 -8.2 -89 -30.9C-84.3 -53.6 -79.5 -78.2 -64.6 -93.7C-49.8 -109.2 -24.9 -115.6 1.2 -117.2C27.2 -118.8 54.5 -115.6 78.2 -103" fill="#BB004B"></path></g></svg>