<svg id="visual" viewBox="0 0 960 300" width="960" height="300" xmlns="http://www.w3.org/2000/svg" xmlns:xlink="http://www.w3.org/1999/xlink" version="1.1"><rect x="0" y="0" width="960" height="300" fill="#FF0066"></rect><g transform="translate(484.50058253516175 152.58277566611622)"><path d="M116.5 -144.6C144.9 -139.8 157.6 -97.6 161.7 -58.7C165.8 -19.9 161.4 15.6 150.7 49.2C140.1 82.8 123.2 114.6 97.1 128.5C70.9 142.3 35.5 138.1 -0.3 138.5C-36.1 139 -72.1 143.9 -104.6 132.1C-137.1 120.4 -166 91.9 -171.3 59.5C-176.6 27.1 -158.2 -9.2 -134.7 -32.1C-111.2 -55.1 -82.7 -64.8 -59.4 -71.3C-36.1 -77.7 -18 -81.1 13 -99C44.1 -116.9 88.2 -149.5 116.5 -144.6" fill="#BB004B"></path></g></svg>