<svg id="visual" viewBox="0 0 960 300" width="960" height="300" xmlns="http://www.w3.org/2000/svg" xmlns:xlink="http://www.w3.org/1999/xlink" version="1.1"><rect x="0" y="0" width="960" height="300" fill="#202731"></rect><path d="M0 235L8.5 229C17 223 34 211 50.8 197.5C67.7 184 84.3 169 101.2 175C118 181 135 208 151.8 216.3C168.7 224.7 185.3 214.3 202.2 209.7C219 205 236 206 252.8 211.2C269.7 216.3 286.3 225.7 303.2 232C320 238.3 337 241.7 353.8 231C370.7 220.3 387.3 195.7 404.2 187.5C421 179.3 438 187.7 454.8 194.3C471.7 201 488.3 206 505.2 202.2C522 198.3 539 185.7 555.8 189.5C572.7 193.3 589.3 213.7 606.2 220.5C623 227.3 640 220.7 656.8 215.8C673.7 211 690.3 208 707.2 210C724 212 741 219 757.8 224.8C774.7 230.7 791.3 235.3 808.2 229.2C825 223 842 206 858.8 191.5C875.7 177 892.3 165 909.2 173.5C926 182 943 211 951.5 225.5L960 240L960 0L951.5 0C943 0 926 0 909.2 0C892.3 0 875.7 0 858.8 0C842 0 825 0 808.2 0C791.3 0 774.7 0 757.8 0C741 0 724 0 707.2 0C690.3 0 673.7 0 656.8 0C640 0 623 0 606.2 0C589.3 0 572.7 0 555.8 0C539 0 522 0 505.2 0C488.3 0 471.7 0 454.8 0C438 0 421 0 404.2 0C387.3 0 370.7 0 353.8 0C337 0 320 0 303.2 0C286.3 0 269.7 0 252.8 0C236 0 219 0 202.2 0C185.3 0 168.7 0 151.8 0C135 0 118 0 101.2 0C84.3 0 67.7 0 50.8 0C34 0 17 0 8.5 0L0 0Z" fill="#02eaff"></path><path d="M0 180L8.5 177.7C17 175.3 34 170.7 50.8 172.7C67.7 174.7 84.3 183.3 101.2 176.7C118 170 135 148 151.8 143C168.7 138 185.3 150 202.2 147.5C219 145 236 128 252.8 119.7C269.7 111.3 286.3 111.7 303.2 120.5C320 129.3 337 146.7 353.8 153.3C370.7 160 387.3 156 404.2 150.7C421 145.3 438 138.7 454.8 136.5C471.7 134.3 488.3 136.7 505.2 132.5C522 128.3 539 117.7 555.8 113.7C572.7 109.7 589.3 112.3 606.2 114.5C623 116.7 640 118.3 656.8 123.8C673.7 129.3 690.3 138.7 707.2 141C724 143.3 741 138.7 757.8 146.3C774.7 154 791.3 174 808.2 182.3C825 190.7 842 187.3 858.8 175.8C875.7 164.3 892.3 144.7 909.2 140C926 135.3 943 145.7 951.5 150.8L960 156L960 0L951.5 0C943 0 926 0 909.2 0C892.3 0 875.7 0 858.8 0C842 0 825 0 808.2 0C791.3 0 774.7 0 757.8 0C741 0 724 0 707.2 0C690.3 0 673.7 0 656.8 0C640 0 623 0 606.2 0C589.3 0 572.7 0 555.8 0C539 0 522 0 505.2 0C488.3 0 471.7 0 454.8 0C438 0 421 0 404.2 0C387.3 0 370.7 0 353.8 0C337 0 320 0 303.2 0C286.3 0 269.7 0 252.8 0C236 0 219 0 202.2 0C185.3 0 168.7 0 151.8 0C135 0 118 0 101.2 0C84.3 0 67.7 0 50.8 0C34 0 17 0 8.5 0L0 0Z" fill="#1ac3ff"></path><path d="M0 141L8.5 138.2C17 135.3 34 129.7 50.8 120C67.7 110.3 84.3 96.7 101.2 95.3C118 94 135 105 151.8 101.7C168.7 98.3 185.3 80.7 202.2 78.8C219 77 236 91 252.8 99.3C269.7 107.7 286.3 110.3 303.2 110.3C320 110.3 337 107.7 353.8 108.5C370.7 109.3 387.3 113.7 404.2 108.5C421 103.3 438 88.7 454.8 88.5C471.7 88.3 488.3 102.7 505.2 112.5C522 122.3 539 127.7 555.8 131.8C572.7 136 589.3 139 606.2 134.7C623 130.3 640 118.7 656.8 108.8C673.7 99 690.3 91 707.2 87.5C724 84 741 85 757.8 90.2C774.7 95.3 791.3 104.7 808.2 112.7C825 120.7 842 127.3 858.8 123.7C875.7 120 892.3 106 909.2 106.8C926 107.7 943 123.3 951.5 131.2L960 139L960 0L951.5 0C943 0 926 0 909.2 0C892.3 0 875.7 0 858.8 0C842 0 825 0 808.2 0C791.3 0 774.7 0 757.8 0C741 0 724 0 707.2 0C690.3 0 673.7 0 656.8 0C640 0 623 0 606.2 0C589.3 0 572.7 0 555.8 0C539 0 522 0 505.2 0C488.3 0 471.7 0 454.8 0C438 0 421 0 404.2 0C387.3 0 370.7 0 353.8 0C337 0 320 0 303.2 0C286.3 0 269.7 0 252.8 0C236 0 219 0 202.2 0C185.3 0 168.7 0 151.8 0C135 0 118 0 101.2 0C84.3 0 67.7 0 50.8 0C34 0 17 0 8.5 0L0 0Z" fill="#9390ff"></path><path d="M0 49L8.5 49C17 49 34 49 50.8 54.5C67.7 60 84.3 71 101.2 70.5C118 70 135 58 151.8 58.3C168.7 58.7 185.3 71.3 202.2 67.5C219 63.7 236 43.3 252.8 33C269.7 22.7 286.3 22.3 303.2 28C320 33.7 337 45.3 353.8 52.7C370.7 60 387.3 63 404.2 67.2C421 71.3 438 76.7 454.8 78C471.7 79.3 488.3 76.7 505.2 69C522 61.3 539 48.7 555.8 47.5C572.7 46.3 589.3 56.7 606.2 65.3C623 74 640 81 656.8 79C673.7 77 690.3 66 707.2 59.2C724 52.3 741 49.7 757.8 48.7C774.7 47.7 791.3 48.3 808.2 55.3C825 62.3 842 75.7 858.8 77C875.7 78.3 892.3 67.7 909.2 65.3C926 63 943 69 951.5 72L960 75L960 0L951.5 0C943 0 926 0 909.2 0C892.3 0 875.7 0 858.8 0C842 0 825 0 808.2 0C791.3 0 774.7 0 757.8 0C741 0 724 0 707.2 0C690.3 0 673.7 0 656.8 0C640 0 623 0 606.2 0C589.3 0 572.7 0 555.8 0C539 0 522 0 505.2 0C488.3 0 471.7 0 454.8 0C438 0 421 0 404.2 0C387.3 0 370.7 0 353.8 0C337 0 320 0 303.2 0C286.3 0 269.7 0 252.8 0C236 0 219 0 202.2 0C185.3 0 168.7 0 151.8 0C135 0 118 0 101.2 0C84.3 0 67.7 0 50.8 0C34 0 17 0 8.5 0L0 0Z" fill="#ff00a1"></path></svg>