<svg id="visual" viewBox="0 0 960 300" width="960" height="300" xmlns="http://www.w3.org/2000/svg" xmlns:xlink="http://www.w3.org/1999/xlink" version="1.1"><rect x="0" y="0" width="960" height="300" fill="#202731"></rect><path d="M0 131L7.7 128.3C15.3 125.7 30.7 120.3 45.8 120.7C61 121 76 127 91.2 127.3C106.3 127.7 121.7 122.3 137 119.8C152.3 117.3 167.7 117.7 183 118.7C198.3 119.7 213.7 121.3 228.8 121.7C244 122 259 121 274.2 122.2C289.3 123.3 304.7 126.7 320 127.3C335.3 128 350.7 126 365.8 124C381 122 396 120 411.2 120.7C426.3 121.3 441.7 124.7 457 124C472.3 123.3 487.7 118.7 503 116C518.3 113.3 533.7 112.7 548.8 113C564 113.3 579 114.7 594.2 117.2C609.3 119.7 624.7 123.3 640 125.8C655.3 128.3 670.7 129.7 685.8 127.5C701 125.3 716 119.7 731.2 118C746.3 116.3 761.7 118.7 777 118.7C792.3 118.7 807.7 116.3 823 117.5C838.3 118.7 853.7 123.3 868.8 123.8C884 124.3 899 120.7 914.2 119.2C929.3 117.7 944.7 118.3 952.3 118.7L960 119L960 0L952.3 0C944.7 0 929.3 0 914.2 0C899 0 884 0 868.8 0C853.7 0 838.3 0 823 0C807.7 0 792.3 0 777 0C761.7 0 746.3 0 731.2 0C716 0 701 0 685.8 0C670.7 0 655.3 0 640 0C624.7 0 609.3 0 594.2 0C579 0 564 0 548.8 0C533.7 0 518.3 0 503 0C487.7 0 472.3 0 457 0C441.7 0 426.3 0 411.2 0C396 0 381 0 365.8 0C350.7 0 335.3 0 320 0C304.7 0 289.3 0 274.2 0C259 0 244 0 228.8 0C213.7 0 198.3 0 183 0C167.7 0 152.3 0 137 0C121.7 0 106.3 0 91.2 0C76 0 61 0 45.8 0C30.7 0 15.3 0 7.7 0L0 0Z" fill="#e6f162"></path><path d="M0 107L7.7 105.5C15.3 104 30.7 101 45.8 100.5C61 100 76 102 91.2 102.8C106.3 103.7 121.7 103.3 137 104.2C152.3 105 167.7 107 183 108.5C198.3 110 213.7 111 228.8 111.2C244 111.3 259 110.7 274.2 109.2C289.3 107.7 304.7 105.3 320 102.7C335.3 100 350.7 97 365.8 97.3C381 97.7 396 101.3 411.2 103.8C426.3 106.3 441.7 107.7 457 106.2C472.3 104.7 487.7 100.3 503 99.3C518.3 98.3 533.7 100.7 548.8 101.7C564 102.7 579 102.3 594.2 102C609.3 101.7 624.7 101.3 640 100.5C655.3 99.7 670.7 98.3 685.8 99.5C701 100.7 716 104.3 731.2 105.2C746.3 106 761.7 104 777 104.5C792.3 105 807.7 108 823 109C838.3 110 853.7 109 868.8 106.8C884 104.7 899 101.3 914.2 100C929.3 98.7 944.7 99.3 952.3 99.7L960 100L960 0L952.3 0C944.7 0 929.3 0 914.2 0C899 0 884 0 868.8 0C853.7 0 838.3 0 823 0C807.7 0 792.3 0 777 0C761.7 0 746.3 0 731.2 0C716 0 701 0 685.8 0C670.7 0 655.3 0 640 0C624.7 0 609.3 0 594.2 0C579 0 564 0 548.8 0C533.7 0 518.3 0 503 0C487.7 0 472.3 0 457 0C441.7 0 426.3 0 411.2 0C396 0 381 0 365.8 0C350.7 0 335.3 0 320 0C304.7 0 289.3 0 274.2 0C259 0 244 0 228.8 0C213.7 0 198.3 0 183 0C167.7 0 152.3 0 137 0C121.7 0 106.3 0 91.2 0C76 0 61 0 45.8 0C30.7 0 15.3 0 7.7 0L0 0Z" fill="#eed53c"></path><path d="M0 83L7.7 81.2C15.3 79.3 30.7 75.7 45.8 75.2C61 74.7 76 77.3 91.2 79.8C106.3 82.3 121.7 84.7 137 86C152.3 87.3 167.7 87.7 183 86.3C198.3 85 213.7 82 228.8 82.5C244 83 259 87 274.2 87.7C289.3 88.3 304.7 85.7 320 84.5C335.3 83.3 350.7 83.7 365.8 84.2C381 84.7 396 85.3 411.2 85.8C426.3 86.3 441.7 86.7 457 85C472.3 83.3 487.7 79.7 503 79.5C518.3 79.3 533.7 82.7 548.8 84.3C564 86 579 86 594.2 85.8C609.3 85.7 624.7 85.3 640 85.7C655.3 86 670.7 87 685.8 85.8C701 84.7 716 81.3 731.2 79C746.3 76.7 761.7 75.3 777 74.5C792.3 73.7 807.7 73.3 823 76.2C838.3 79 853.7 85 868.8 87.5C884 90 899 89 914.2 86C929.3 83 944.7 78 952.3 75.5L960 73L960 0L952.3 0C944.7 0 929.3 0 914.2 0C899 0 884 0 868.8 0C853.7 0 838.3 0 823 0C807.7 0 792.3 0 777 0C761.7 0 746.3 0 731.2 0C716 0 701 0 685.8 0C670.7 0 655.3 0 640 0C624.7 0 609.3 0 594.2 0C579 0 564 0 548.8 0C533.7 0 518.3 0 503 0C487.7 0 472.3 0 457 0C441.7 0 426.3 0 411.2 0C396 0 381 0 365.8 0C350.7 0 335.3 0 320 0C304.7 0 289.3 0 274.2 0C259 0 244 0 228.8 0C213.7 0 198.3 0 183 0C167.7 0 152.3 0 137 0C121.7 0 106.3 0 91.2 0C76 0 61 0 45.8 0C30.7 0 15.3 0 7.7 0L0 0Z" fill="#f4b716"></path><path d="M0 60L7.7 58.8C15.3 57.7 30.7 55.3 45.8 55.2C61 55 76 57 91.2 58.3C106.3 59.7 121.7 60.3 137 61.7C152.3 63 167.7 65 183 63.5C198.3 62 213.7 57 228.8 55.2C244 53.3 259 54.7 274.2 55C289.3 55.3 304.7 54.7 320 54C335.3 53.3 350.7 52.7 365.8 54.7C381 56.7 396 61.3 411.2 62.2C426.3 63 441.7 60 457 59.8C472.3 59.7 487.7 62.3 503 61.7C518.3 61 533.7 57 548.8 55.8C564 54.7 579 56.3 594.2 57.5C609.3 58.7 624.7 59.3 640 60.8C655.3 62.3 670.7 64.7 685.8 66C701 67.3 716 67.7 731.2 66C746.3 64.3 761.7 60.7 777 60.8C792.3 61 807.7 65 823 65.7C838.3 66.3 853.7 63.7 868.8 62.8C884 62 899 63 914.2 62.7C929.3 62.3 944.7 60.7 952.3 59.8L960 59L960 0L952.3 0C944.7 0 929.3 0 914.2 0C899 0 884 0 868.8 0C853.7 0 838.3 0 823 0C807.7 0 792.3 0 777 0C761.7 0 746.3 0 731.2 0C716 0 701 0 685.8 0C670.7 0 655.3 0 640 0C624.7 0 609.3 0 594.2 0C579 0 564 0 548.8 0C533.7 0 518.3 0 503 0C487.7 0 472.3 0 457 0C441.7 0 426.3 0 411.2 0C396 0 381 0 365.8 0C350.7 0 335.3 0 320 0C304.7 0 289.3 0 274.2 0C259 0 244 0 228.8 0C213.7 0 198.3 0 183 0C167.7 0 152.3 0 137 0C121.7 0 106.3 0 91.2 0C76 0 61 0 45.8 0C30.7 0 15.3 0 7.7 0L0 0Z" fill="#fa9600"></path><path d="M0 48L7.7 47.3C15.3 46.7 30.7 45.3 45.8 43.5C61 41.7 76 39.3 91.2 40C106.3 40.7 121.7 44.3 137 44C152.3 43.7 167.7 39.3 183 37.3C198.3 35.3 213.7 35.7 228.8 35.5C244 35.3 259 34.7 274.2 36.7C289.3 38.7 304.7 43.3 320 44.5C335.3 45.7 350.7 43.3 365.8 41.2C381 39 396 37 411.2 37.2C426.3 37.3 441.7 39.7 457 39.8C472.3 40 487.7 38 503 38.7C518.3 39.3 533.7 42.7 548.8 44.5C564 46.3 579 46.7 594.2 44.8C609.3 43 624.7 39 640 38.2C655.3 37.3 670.7 39.7 685.8 41.5C701 43.3 716 44.7 731.2 44.3C746.3 44 761.7 42 777 41.8C792.3 41.7 807.7 43.3 823 42.2C838.3 41 853.7 37 868.8 36.3C884 35.7 899 38.3 914.2 40.5C929.3 42.7 944.7 44.3 952.3 45.2L960 46L960 0L952.3 0C944.7 0 929.3 0 914.2 0C899 0 884 0 868.8 0C853.7 0 838.3 0 823 0C807.7 0 792.3 0 777 0C761.7 0 746.3 0 731.2 0C716 0 701 0 685.8 0C670.7 0 655.3 0 640 0C624.7 0 609.3 0 594.2 0C579 0 564 0 548.8 0C533.7 0 518.3 0 503 0C487.7 0 472.3 0 457 0C441.7 0 426.3 0 411.2 0C396 0 381 0 365.8 0C350.7 0 335.3 0 320 0C304.7 0 289.3 0 274.2 0C259 0 244 0 228.8 0C213.7 0 198.3 0 183 0C167.7 0 152.3 0 137 0C121.7 0 106.3 0 91.2 0C76 0 61 0 45.8 0C30.7 0 15.3 0 7.7 0L0 0Z" fill="#fd7100"></path><path d="M0 12L7.7 14C15.3 16 30.7 20 45.8 22.7C61 25.3 76 26.7 91.2 27.3C106.3 28 121.7 28 137 25.5C152.3 23 167.7 18 183 15.5C198.3 13 213.7 13 228.8 14.3C244 15.7 259 18.3 274.2 19.7C289.3 21 304.7 21 320 22C335.3 23 350.7 25 365.8 24.2C381 23.3 396 19.7 411.2 18C426.3 16.3 441.7 16.7 457 18C472.3 19.3 487.7 21.7 503 21.8C518.3 22 533.7 20 548.8 18.7C564 17.3 579 16.7 594.2 15.7C609.3 14.7 624.7 13.3 640 15.3C655.3 17.3 670.7 22.7 685.8 24C701 25.3 716 22.7 731.2 22.7C746.3 22.7 761.7 25.3 777 25.2C792.3 25 807.7 22 823 21.5C838.3 21 853.7 23 868.8 22.5C884 22 899 19 914.2 19C929.3 19 944.7 22 952.3 23.5L960 25L960 0L952.3 0C944.7 0 929.3 0 914.2 0C899 0 884 0 868.8 0C853.7 0 838.3 0 823 0C807.7 0 792.3 0 777 0C761.7 0 746.3 0 731.2 0C716 0 701 0 685.8 0C670.7 0 655.3 0 640 0C624.7 0 609.3 0 594.2 0C579 0 564 0 548.8 0C533.7 0 518.3 0 503 0C487.7 0 472.3 0 457 0C441.7 0 426.3 0 411.2 0C396 0 381 0 365.8 0C350.7 0 335.3 0 320 0C304.7 0 289.3 0 274.2 0C259 0 244 0 228.8 0C213.7 0 198.3 0 183 0C167.7 0 152.3 0 137 0C121.7 0 106.3 0 91.2 0C76 0 61 0 45.8 0C30.7 0 15.3 0 7.7 0L0 0Z" fill="#ff3f00"></path></svg>