<svg id="visual" viewBox="0 0 960 300" width="960" height="300" xmlns="http://www.w3.org/2000/svg" xmlns:xlink="http://www.w3.org/1999/xlink" version="1.1"><rect x="0" y="0" width="960" height="300" fill="#202731"></rect><path d="M0 236L7.7 231.3C15.3 226.7 30.7 217.3 45.8 218C61 218.7 76 229.3 91.2 229.8C106.3 230.3 121.7 220.7 137 216.2C152.3 211.7 167.7 212.3 183 214.3C198.3 216.3 213.7 219.7 228.8 220.2C244 220.7 259 218.3 274.2 220.5C289.3 222.7 304.7 229.3 320 230.5C335.3 231.7 350.7 227.3 365.8 223.5C381 219.7 396 216.3 411.2 217.8C426.3 219.3 441.7 225.7 457 224.5C472.3 223.3 487.7 214.7 503 209.7C518.3 204.7 533.7 203.3 548.8 203.8C564 204.3 579 206.7 594.2 211.2C609.3 215.7 624.7 222.3 640 227C655.3 231.7 670.7 234.3 685.8 230.5C701 226.7 716 216.3 731.2 213.2C746.3 210 761.7 214 777 214.2C792.3 214.3 807.7 210.7 823 212.8C838.3 215 853.7 223 868.8 223.8C884 224.7 899 218.3 914.2 215.7C929.3 213 944.7 214 952.3 214.5L960 215L960 0L952.3 0C944.7 0 929.3 0 914.2 0C899 0 884 0 868.8 0C853.7 0 838.3 0 823 0C807.7 0 792.3 0 777 0C761.7 0 746.3 0 731.2 0C716 0 701 0 685.8 0C670.7 0 655.3 0 640 0C624.7 0 609.3 0 594.2 0C579 0 564 0 548.8 0C533.7 0 518.3 0 503 0C487.7 0 472.3 0 457 0C441.7 0 426.3 0 411.2 0C396 0 381 0 365.8 0C350.7 0 335.3 0 320 0C304.7 0 289.3 0 274.2 0C259 0 244 0 228.8 0C213.7 0 198.3 0 183 0C167.7 0 152.3 0 137 0C121.7 0 106.3 0 91.2 0C76 0 61 0 45.8 0C30.7 0 15.3 0 7.7 0L0 0Z" fill="#e6f162"></path><path d="M0 194L7.7 191.2C15.3 188.3 30.7 182.7 45.8 181.8C61 181 76 185 91.2 186.3C106.3 187.7 121.7 186.3 137 187.8C152.3 189.3 167.7 193.7 183 196.5C198.3 199.3 213.7 200.7 228.8 200.7C244 200.7 259 199.3 274.2 196.7C289.3 194 304.7 190 320 185.5C335.3 181 350.7 176 365.8 176.7C381 177.3 396 183.7 411.2 187.8C426.3 192 441.7 194 457 191.2C472.3 188.3 487.7 180.7 503 179C518.3 177.3 533.7 181.7 548.8 183.7C564 185.7 579 185.3 594.2 184.7C609.3 184 624.7 183 640 181.3C655.3 179.7 670.7 177.3 685.8 179.7C701 182 716 189 731.2 190.5C746.3 192 761.7 188 777 188.8C792.3 189.7 807.7 195.3 823 197C838.3 198.7 853.7 196.3 868.8 192.3C884 188.3 899 182.7 914.2 180.5C929.3 178.3 944.7 179.7 952.3 180.3L960 181L960 0L952.3 0C944.7 0 929.3 0 914.2 0C899 0 884 0 868.8 0C853.7 0 838.3 0 823 0C807.7 0 792.3 0 777 0C761.7 0 746.3 0 731.2 0C716 0 701 0 685.8 0C670.7 0 655.3 0 640 0C624.7 0 609.3 0 594.2 0C579 0 564 0 548.8 0C533.7 0 518.3 0 503 0C487.7 0 472.3 0 457 0C441.7 0 426.3 0 411.2 0C396 0 381 0 365.8 0C350.7 0 335.3 0 320 0C304.7 0 289.3 0 274.2 0C259 0 244 0 228.8 0C213.7 0 198.3 0 183 0C167.7 0 152.3 0 137 0C121.7 0 106.3 0 91.2 0C76 0 61 0 45.8 0C30.7 0 15.3 0 7.7 0L0 0Z" fill="#eed53c"></path><path d="M0 151L7.7 147.7C15.3 144.3 30.7 137.7 45.8 136.7C61 135.7 76 140.3 91.2 144.7C106.3 149 121.7 153 137 155.3C152.3 157.7 167.7 158.3 183 156C198.3 153.7 213.7 148.3 228.8 149.2C244 150 259 157 274.2 158.3C289.3 159.7 304.7 155.3 320 153.3C335.3 151.3 350.7 151.7 365.8 152.3C381 153 396 154 411.2 154.8C426.3 155.7 441.7 156.3 457 153.5C472.3 150.7 487.7 144.3 503 144C518.3 143.7 533.7 149.3 548.8 152.3C564 155.3 579 155.7 594.2 155.3C609.3 155 624.7 154 640 154.5C655.3 155 670.7 157 685.8 155C701 153 716 147 731.2 143C746.3 139 761.7 137 777 135.7C792.3 134.3 807.7 133.7 823 138.7C838.3 143.7 853.7 154.3 868.8 158.7C884 163 899 161 914.2 155.5C929.3 150 944.7 141 952.3 136.5L960 132L960 0L952.3 0C944.7 0 929.3 0 914.2 0C899 0 884 0 868.8 0C853.7 0 838.3 0 823 0C807.7 0 792.3 0 777 0C761.7 0 746.3 0 731.2 0C716 0 701 0 685.8 0C670.7 0 655.3 0 640 0C624.7 0 609.3 0 594.2 0C579 0 564 0 548.8 0C533.7 0 518.3 0 503 0C487.7 0 472.3 0 457 0C441.7 0 426.3 0 411.2 0C396 0 381 0 365.8 0C350.7 0 335.3 0 320 0C304.7 0 289.3 0 274.2 0C259 0 244 0 228.8 0C213.7 0 198.3 0 183 0C167.7 0 152.3 0 137 0C121.7 0 106.3 0 91.2 0C76 0 61 0 45.8 0C30.7 0 15.3 0 7.7 0L0 0Z" fill="#f4b716"></path><path d="M0 109L7.7 106.8C15.3 104.7 30.7 100.3 45.8 99.8C61 99.3 76 102.7 91.2 105C106.3 107.3 121.7 108.7 137 111.2C152.3 113.7 167.7 117.3 183 114.7C198.3 112 213.7 103 228.8 99.7C244 96.3 259 98.7 274.2 99.3C289.3 100 304.7 99 320 97.8C335.3 96.7 350.7 95.3 365.8 98.8C381 102.3 396 110.7 411.2 112.2C426.3 113.7 441.7 108.3 457 108.2C472.3 108 487.7 113 503 111.7C518.3 110.3 533.7 102.7 548.8 100.5C564 98.3 579 101.7 594.2 103.8C609.3 106 624.7 107 640 109.7C655.3 112.3 670.7 116.7 685.8 119.3C701 122 716 123 731.2 120C746.3 117 761.7 110 777 110.2C792.3 110.3 807.7 117.7 823 118.8C838.3 120 853.7 115 868.8 113.5C884 112 899 114 914.2 113.5C929.3 113 944.7 110 952.3 108.5L960 107L960 0L952.3 0C944.7 0 929.3 0 914.2 0C899 0 884 0 868.8 0C853.7 0 838.3 0 823 0C807.7 0 792.3 0 777 0C761.7 0 746.3 0 731.2 0C716 0 701 0 685.8 0C670.7 0 655.3 0 640 0C624.7 0 609.3 0 594.2 0C579 0 564 0 548.8 0C533.7 0 518.3 0 503 0C487.7 0 472.3 0 457 0C441.7 0 426.3 0 411.2 0C396 0 381 0 365.8 0C350.7 0 335.3 0 320 0C304.7 0 289.3 0 274.2 0C259 0 244 0 228.8 0C213.7 0 198.3 0 183 0C167.7 0 152.3 0 137 0C121.7 0 106.3 0 91.2 0C76 0 61 0 45.8 0C30.7 0 15.3 0 7.7 0L0 0Z" fill="#fa9600"></path><path d="M0 88L7.7 86.5C15.3 85 30.7 82 45.8 78.5C61 75 76 71 91.2 72.2C106.3 73.3 121.7 79.7 137 79.2C152.3 78.7 167.7 71.3 183 68C198.3 64.7 213.7 65.3 228.8 65.2C244 65 259 64 274.2 67.5C289.3 71 304.7 79 320 80.8C335.3 82.7 350.7 78.3 365.8 74.5C381 70.7 396 67.3 411.2 67.7C426.3 68 441.7 72 457 72.2C472.3 72.3 487.7 68.7 503 69.8C518.3 71 533.7 77 548.8 80.3C564 83.7 579 84.3 594.2 81.2C609.3 78 624.7 71 640 69.7C655.3 68.3 670.7 72.7 685.8 75.8C701 79 716 81 731.2 80.5C746.3 80 761.7 77 777 76.7C792.3 76.3 807.7 78.7 823 76.3C838.3 74 853.7 67 868.8 66C884 65 899 70 914.2 73.8C929.3 77.7 944.7 80.3 952.3 81.7L960 83L960 0L952.3 0C944.7 0 929.3 0 914.2 0C899 0 884 0 868.8 0C853.7 0 838.3 0 823 0C807.7 0 792.3 0 777 0C761.7 0 746.3 0 731.2 0C716 0 701 0 685.8 0C670.7 0 655.3 0 640 0C624.7 0 609.3 0 594.2 0C579 0 564 0 548.8 0C533.7 0 518.3 0 503 0C487.7 0 472.3 0 457 0C441.7 0 426.3 0 411.2 0C396 0 381 0 365.8 0C350.7 0 335.3 0 320 0C304.7 0 289.3 0 274.2 0C259 0 244 0 228.8 0C213.7 0 198.3 0 183 0C167.7 0 152.3 0 137 0C121.7 0 106.3 0 91.2 0C76 0 61 0 45.8 0C30.7 0 15.3 0 7.7 0L0 0Z" fill="#fd7100"></path><path d="M0 23L7.7 26.5C15.3 30 30.7 37 45.8 41.7C61 46.3 76 48.7 91.2 49.8C106.3 51 121.7 51 137 46.5C152.3 42 167.7 33 183 28.7C198.3 24.3 213.7 24.7 228.8 27.2C244 29.7 259 34.3 274.2 36.5C289.3 38.7 304.7 38.3 320 40.2C335.3 42 350.7 46 365.8 44.7C381 43.3 396 36.7 411.2 33.7C426.3 30.7 441.7 31.3 457 33.7C472.3 36 487.7 40 503 40.3C518.3 40.7 533.7 37.3 548.8 34.8C564 32.3 579 30.7 594.2 28.7C609.3 26.7 624.7 24.3 640 28C655.3 31.7 670.7 41.3 685.8 43.8C701 46.3 716 41.7 731.2 41.7C746.3 41.7 761.7 46.3 777 45.8C792.3 45.3 807.7 39.7 823 38.7C838.3 37.7 853.7 41.3 868.8 40.7C884 40 899 35 914.2 35C929.3 35 944.7 40 952.3 42.5L960 45L960 0L952.3 0C944.7 0 929.3 0 914.2 0C899 0 884 0 868.8 0C853.7 0 838.3 0 823 0C807.7 0 792.3 0 777 0C761.7 0 746.3 0 731.2 0C716 0 701 0 685.8 0C670.7 0 655.3 0 640 0C624.7 0 609.3 0 594.2 0C579 0 564 0 548.8 0C533.7 0 518.3 0 503 0C487.7 0 472.3 0 457 0C441.7 0 426.3 0 411.2 0C396 0 381 0 365.8 0C350.7 0 335.3 0 320 0C304.7 0 289.3 0 274.2 0C259 0 244 0 228.8 0C213.7 0 198.3 0 183 0C167.7 0 152.3 0 137 0C121.7 0 106.3 0 91.2 0C76 0 61 0 45.8 0C30.7 0 15.3 0 7.7 0L0 0Z" fill="#ff3f00"></path></svg>