<svg width="537" height="422" viewBox="0 0 537 422" fill="none" xmlns="http://www.w3.org/2000/svg">
<g id="fa-primary">
<rect id="Rectangle 2" x="203" y="31" width="24" height="34" fill="#00F5E7"/>
<rect id="Rectangle 3" x="265" y="31" width="24" height="34" fill="#00F5E7"/>
<rect id="Rectangle 4" x="327" y="31" width="24" height="34" fill="#00F5E7"/>
<rect id="Rectangle 5" x="389" y="31" width="24" height="34" fill="#00F5E7"/>
<rect id="Rectangle 6" x="441" y="31" width="24" height="34" fill="#00F5E7"/>
<rect id="Rectangle 7" x="203" y="96" width="24" height="34" fill="#00F5E7"/>
<rect id="Rectangle 8" x="265" y="96" width="24" height="34" fill="#00F5E7"/>
<rect id="Rectangle 9" x="327" y="96" width="24" height="34" fill="#00F5E7"/>
<rect id="Rectangle 10" x="389" y="96" width="24" height="34" fill="#00F5E7"/>
<rect id="Rectangle 11" x="441" y="96" width="24" height="34" fill="#00F5E7"/>
<rect id="Rectangle 12" x="203" y="157" width="24" height="34" fill="#00F5E7"/>
<rect id="Rectangle 13" x="265" y="157" width="24" height="12" fill="#00F5E7"/>
<rect id="Rectangle 14" x="327" y="157" width="24" height="34" fill="#00F5E7"/>
<rect id="Rectangle 15" x="389" y="157" width="24" height="34" fill="#00F5E7"/>
<rect id="Rectangle 16" x="441" y="157" width="24" height="34" fill="#00F5E7"/>
<rect id="Rectangle 19" x="338" y="218" width="13" height="5" fill="#00F5E7"/>
<rect id="Rectangle 20" x="389" y="218" width="24" height="34" fill="#00F5E7"/>
<rect id="Rectangle 21" x="441" y="218" width="24" height="34" fill="#00F5E7"/>
<rect id="Rectangle 25" x="400" y="283" width="13" height="5" fill="#00F5E7"/>
<rect id="Rectangle 26" x="441" y="283" width="24" height="34" fill="#00F5E7"/>
<g id="bolt 1" clip-path="url(#clip0_0_1)">
<path id="Vector" d="M226.334 251.245C228.33 247.587 227.517 243.021 224.374 240.259C221.232 237.497 216.617 237.292 213.218 239.726L136.158 295.408C133.146 297.597 131.78 301.427 132.769 304.998C133.759 308.57 136.884 311.218 140.587 311.563L171.635 314.454L145.597 362.371C143.601 366.03 144.414 370.596 147.557 373.357C150.699 376.119 155.314 376.325 158.714 373.891L235.773 318.209C238.785 316.02 240.151 312.19 239.162 308.618C238.172 305.047 235.073 302.429 231.341 302.082L200.293 299.191L226.334 251.245Z" fill="#00F5E7"/>
</g>
<g id="money 1" clip-path="url(#clip1_0_1)">
<path id="Vector_2" d="M76.875 275.062H46.125L34.7379 257.982C33.0322 255.411 34.858 252 37.933 252H85.067C88.142 252 89.9678 255.411 88.2621 257.982L76.875 275.062ZM46.125 282.75H76.875C77.7879 283.351 78.8209 284.023 79.998 284.768C93.6193 293.488 123 312.275 123 351.938C123 364.67 112.67 375 99.9375 375H23.0625C10.3301 375 0 364.67 0 351.938C0 312.275 29.3807 293.488 43.002 284.768C44.1551 284.023 45.2121 283.351 46.125 282.75ZM66.3047 303.891C66.3047 301.248 64.1426 299.086 61.5 299.086C58.8574 299.086 56.6953 301.248 56.6953 303.891V307.254C54.8695 307.662 53.0438 308.311 51.3621 309.296C48.0229 311.29 45.14 314.773 45.1641 319.842C45.1881 324.719 48.0469 327.794 51.0979 329.62C53.7404 331.205 57.0316 332.214 59.6502 332.983L60.0586 333.103C63.0855 334.016 65.2957 334.737 66.7852 335.674C68.0104 336.442 68.1785 336.971 68.2025 337.644C68.2266 338.845 67.7701 339.565 66.7852 340.166C65.584 340.911 63.6861 341.367 61.6441 341.295C58.9775 341.199 56.4791 340.358 53.2119 339.253C52.6594 339.061 52.0828 338.869 51.4822 338.677C48.9598 337.836 46.2451 339.205 45.4043 341.704C44.5635 344.202 45.9328 346.941 48.4313 347.781C48.8877 347.926 49.3922 348.094 49.8967 348.286C51.8906 348.983 54.1969 349.775 56.6713 350.304V353.859C56.6713 356.502 58.8334 358.664 61.476 358.664C64.1186 358.664 66.2807 356.502 66.2807 353.859V350.544C68.2025 350.136 70.1244 349.463 71.8541 348.382C75.2895 346.244 77.884 342.592 77.8119 337.571C77.7398 332.695 75.0012 329.548 71.9021 327.578C69.1395 325.848 65.6801 324.791 62.9895 323.974L62.8213 323.926C59.7463 322.989 57.5602 322.317 56.0227 321.404C54.7734 320.659 54.7494 320.227 54.7494 319.794C54.7494 318.905 55.0857 318.233 56.2389 317.56C57.5361 316.791 59.5061 316.335 61.4039 316.359C63.7102 316.383 66.2566 316.887 68.8992 317.608C71.4697 318.281 74.0883 316.767 74.785 314.197C75.4816 311.626 73.9441 309.008 71.3736 308.311C69.8121 307.903 68.0824 307.494 66.3047 307.182V303.891Z" fill="#00F5E7"/>
</g>
<path id="Vector_3" d="M339.83 323.223C341.08 326.147 341.72 329.323 341.72 332.499C341.72 349.165 328.618 362.844 312.47 362.844C296.321 362.844 283.22 349.165 283.22 332.499C283.22 329.323 283.859 326.116 285.109 323.223L285.688 321.87C290.502 310.739 297.235 300.582 305.584 291.966L308.295 289.167C309.392 288.035 310.885 287.406 312.439 287.406C313.993 287.406 315.486 288.035 316.583 289.167L319.295 291.966C327.643 300.582 334.407 310.739 339.191 321.87L339.77 323.223H339.83Z" fill="#00F5E7"/>
</g>
<g id="fa-secondary">
<line id="Line 1" x1="284.565" y1="161.826" x2="173.565" y2="243.826" stroke="#F902A5" stroke-width="12"/>
<line id="Line 2" x1="179.571" y1="243.047" x2="20.5707" y2="69.0474" stroke="#F902A5" stroke-width="12"/>
<line id="Line 3" x1="495.5" y1="371" x2="495.5" y2="6.55671e-08" stroke="#F902A5" stroke-width="3"/>
<line id="Line 4" x1="497" y1="1.5" x2="170" y2="1.49997" stroke="#F902A5" stroke-width="3"/>
<line id="Line 5" x1="171.5" x2="171.5" y2="227" stroke="#F902A5" stroke-width="3"/>
<path id="Arrow 1" d="M537 422L520.227 354.779L470.398 402.915L537 422ZM503.797 378.994L285.315 152.831L276.685 161.169L495.166 387.331L503.797 378.994Z" fill="#F902A5"/>
<path id="Vector_4" d="M367.496 307.657L367.283 307.06C356.923 277.564 339.922 251.056 317.71 229.673L316.705 228.729C315.577 227.629 314.054 227 312.5 227C310.946 227 309.423 227.629 308.295 228.729L307.29 229.673C285.078 251.056 268.077 277.564 257.717 307.06L257.504 307.657C255.188 314.198 254 321.147 254 328.128C254 361.177 280.447 388 312.5 388C344.553 388 371 361.177 371 328.128C371 321.147 369.812 314.229 367.496 307.657ZM339.83 323.223C341.08 326.147 341.72 329.323 341.72 332.499C341.72 349.165 328.618 362.844 312.47 362.844C296.321 362.844 283.22 349.165 283.22 332.499C283.22 329.323 283.859 326.116 285.109 323.223L285.688 321.871C290.502 310.739 297.235 300.582 305.584 291.966L308.295 289.167C309.392 288.035 310.885 287.406 312.439 287.406C313.993 287.406 315.486 288.035 316.583 289.167L319.295 291.966C327.643 300.582 334.407 310.739 339.191 321.871L339.77 323.223H339.83Z" fill="#F902A5"/>
</g>
<defs>
<clipPath id="clip0_0_1">
<rect width="141" height="161" fill="white" transform="translate(123 218)"/>
</clipPath>
<clipPath id="clip1_0_1">
<rect width="123" height="123" fill="white" transform="translate(0 252)"/>
</clipPath>
</defs>
</svg>
